<svg xmlns="http://www.w3.org/2000/svg" height="24" viewBox="0 -960 960 960" width="24"><path d="M609.174-301.348Q596.5-315.782 596.5-334.435q0-18.652 12.674-31.326l68.739-68.739H401.196q-19.153 0-32.326-13.174-13.174-13.174-13.174-32.326t13.174-32.326q13.173-13.174 32.326-13.174h276.717l-68.978-68.978q-13.435-13.435-13.316-32.087.12-18.653 13.555-32.087 12.674-13.435 31.446-13.435 18.771 0 31.445 12.674l147.587 147.587q6.718 6.717 9.696 14.793 2.978 8.076 2.978 17.033t-2.978 17.033q-2.978 8.076-9.696 14.793L671.826-300.348q-14.435 14.435-32.206 13.055-17.772-1.381-30.446-14.055ZM199.522-111.869q-37.783 0-64.392-26.609-26.609-26.609-26.609-64.392v-554.26q0-37.783 26.609-64.392 26.609-26.609 64.392-26.609h236.891q19.152 0 32.326 13.174t13.174 32.327q0 19.152-13.174 32.326t-32.326 13.174H199.522v554.26h236.891q19.152 0 32.326 13.174t13.174 32.326q0 19.153-13.174 32.327t-32.326 13.174H199.522Z" fill="#FDEB67"/></svg>